<svg width="365" height="60" viewBox="0 0 365 60" fill="none" xmlns="http://www.w3.org/2000/svg">
<rect width="365" height="60" fill="#0044FF"/>
<path d="M32.4652 36.368H30.4375V44.2269H32.4652V36.368Z" fill="white"/>
<path d="M47.9261 36.368L47.9096 37.1347C47.3523 36.5497 46.4888 36.2464 45.6519 36.2464C43.4315 36.2464 41.6319 38.0614 41.6319 40.3001C41.6319 42.5388 43.4318 44.3537 45.6519 44.3537C46.4888 44.3537 47.317 44.0735 47.9096 43.4595L47.9261 44.2269H49.9538V36.368H47.9261ZM45.7549 42.5541C44.4513 42.5541 43.4818 41.5755 43.4818 40.2952C43.4818 39.0149 44.4472 38.03 45.7507 38.03C47.0543 38.03 48.0197 39.019 48.0197 40.2997C48.0193 41.58 47.0584 42.5541 45.7549 42.5541Z" fill="white"/>
<path d="M39.0229 41.6184C38.6208 42.2314 37.9478 42.6339 37.1849 42.6339C36.1707 42.6339 35.2707 41.9038 34.9998 40.9312H41.0828C41.1181 40.7171 41.1155 40.5168 41.1155 40.2926C41.1155 38.055 39.4388 36.2412 37.1849 36.2412C35.8276 36.2412 34.6255 36.8997 33.8837 37.9118L35.347 38.9671C35.7491 38.3538 36.4221 37.9513 37.1849 37.9513C38.0537 37.9513 38.8136 38.3956 39.1818 39.1566H33.2255C33.1339 39.4939 33.104 39.9263 33.104 40.2926C33.104 42.5302 34.931 44.344 37.1849 44.344C38.5422 44.344 39.744 43.6859 40.4857 42.6738L39.0229 41.6184Z" fill="white"/>
<path d="M24.831 13.8032V15.7845H21.2828V26.0353H19.1986V15.7845H15.6504V13.8032H24.831Z" fill="white"/>
<path d="M34.2293 21.5732C34.2293 20.2523 34.6485 19.144 35.4867 18.2481C36.325 17.3407 37.3929 16.8871 38.6905 16.8871C39.9191 16.8871 40.8952 17.2374 41.6186 17.938C42.3535 18.6271 42.7899 19.4254 42.9277 20.3327H40.8263C40.7 19.8389 40.4416 19.4426 40.0512 19.144C39.6722 18.8454 39.2129 18.696 38.6732 18.696C37.9498 18.696 37.3699 18.966 36.9336 19.5058C36.4972 20.0341 36.279 20.7232 36.279 21.5732C36.279 22.4231 36.4972 23.1122 36.9336 23.6406C37.3699 24.1689 37.9498 24.4331 38.6732 24.4331C39.2129 24.4331 39.6722 24.2837 40.0512 23.9851C40.4416 23.6865 40.7 23.2902 40.8263 22.7964H42.9277C42.7899 23.7037 42.3535 24.5077 41.6186 25.2083C40.8952 25.8975 39.9191 26.242 38.6905 26.242C37.3929 26.242 36.325 25.7941 35.4867 24.8982C34.6485 23.9909 34.2293 22.8825 34.2293 21.5732Z" fill="white"/>
<path d="M46.6355 13.1141V18.0586C47.1752 17.2776 48.0421 16.8871 49.2364 16.8871C50.2928 16.8871 51.1081 17.2087 51.6822 17.8519C52.2679 18.495 52.5607 19.3507 52.5607 20.4189V26.0353H50.511V20.6773C50.511 20.0456 50.3617 19.5517 50.0631 19.1957C49.7761 18.8281 49.334 18.6444 48.7369 18.6444C48.0823 18.6444 47.5656 18.8396 47.1867 19.2301C46.8192 19.6206 46.6355 20.1662 46.6355 20.8668V26.0353H44.5858V13.1141H46.6355Z" fill="white"/>
<path d="M56.7727 17.0938V18.2826C56.9794 17.8921 57.3182 17.5647 57.789 17.3006C58.2712 17.0249 58.8511 16.8871 59.5286 16.8871C60.5851 16.8871 61.4003 17.2087 61.9745 17.8519C62.5601 18.495 62.8529 19.3507 62.8529 20.4189V26.0353H60.8032V20.6773C60.8032 20.0456 60.6539 19.5517 60.3554 19.1957C60.0683 18.8281 59.6262 18.6444 59.0291 18.6444C58.3746 18.6444 57.8579 18.8396 57.4789 19.2301C57.1115 19.6206 56.9277 20.1604 56.9277 20.8496V26.0353H54.878V17.0938H56.7727Z" fill="white"/>
<path d="M69.218 26.242C67.8401 26.242 66.7205 25.7883 65.8593 24.881C65.0095 23.9736 64.5847 22.871 64.5847 21.5732C64.5847 20.2753 65.0095 19.1727 65.8593 18.2653C66.7205 17.3465 67.8401 16.8871 69.218 16.8871C70.6075 16.8871 71.727 17.3465 72.5768 18.2653C73.438 19.1727 73.8686 20.2753 73.8686 21.5732C73.8686 22.871 73.438 23.9736 72.5768 24.881C71.727 25.7883 70.6075 26.242 69.218 26.242ZM66.6344 21.5732C66.6344 22.4231 66.8755 23.1122 67.3578 23.6406C67.8516 24.1689 68.4716 24.4331 69.218 24.4331C69.9759 24.4331 70.596 24.1689 71.0783 23.6406C71.572 23.1122 71.8189 22.4231 71.8189 21.5732C71.8189 20.7117 71.572 20.0169 71.0783 19.4885C70.596 18.9602 69.9759 18.696 69.218 18.696C68.4716 18.696 67.8516 18.9602 67.3578 19.4885C66.8755 20.0169 66.6344 20.7117 66.6344 21.5732Z" fill="white"/>
<path d="M77.7309 26.0353H75.6812V13.1141H77.7309V26.0353Z" fill="white"/>
<path d="M84.1676 26.242C82.7896 26.242 81.6701 25.7883 80.8088 24.881C79.9591 23.9736 79.5342 22.871 79.5342 21.5732C79.5342 20.2753 79.9591 19.1727 80.8088 18.2653C81.6701 17.3465 82.7896 16.8871 84.1676 16.8871C85.557 16.8871 86.6766 17.3465 87.5264 18.2653C88.3876 19.1727 88.8182 20.2753 88.8182 21.5732C88.8182 22.871 88.3876 23.9736 87.5264 24.881C86.6766 25.7883 85.557 26.242 84.1676 26.242ZM81.5839 21.5732C81.5839 22.4231 81.8251 23.1122 82.3074 23.6406C82.8011 24.1689 83.4212 24.4331 84.1676 24.4331C84.9255 24.4331 85.5455 24.1689 86.0278 23.6406C86.5216 23.1122 86.7685 22.4231 86.7685 21.5732C86.7685 20.7117 86.5216 20.0169 86.0278 19.4885C85.5455 18.9602 84.9255 18.696 84.1676 18.696C83.4212 18.696 82.8011 18.9602 82.3074 19.4885C81.8251 20.0169 81.5839 20.7117 81.5839 21.5732Z" fill="white"/>
<path d="M97.1416 18.3687V17.0938H99.0363V25.6563C99.0363 26.8737 98.6574 27.8672 97.8995 28.6368C97.1531 29.4178 96.1081 29.8083 94.7646 29.8083C93.536 29.8083 92.5714 29.4924 91.8709 28.8607C91.182 28.229 90.7801 27.5054 90.6652 26.69H92.7149C92.9676 27.5973 93.6623 28.051 94.7991 28.051C95.4881 28.051 96.022 27.8557 96.401 27.4652C96.7914 27.0862 96.9866 26.5751 96.9866 25.9319V24.5364C96.3895 25.4553 95.4479 25.9147 94.1618 25.9147C92.9216 25.9147 91.9226 25.484 91.1647 24.6226C90.4184 23.7497 90.0452 22.6758 90.0452 21.4009C90.0452 20.126 90.4184 19.0578 91.1647 18.1964C91.9226 17.3235 92.9216 16.8871 94.1618 16.8871C95.5283 16.8871 96.5215 17.3809 97.1416 18.3687ZM97.0727 21.4009C97.0727 20.6084 96.8431 19.9594 96.3837 19.4541C95.9244 18.9487 95.3216 18.696 94.5752 18.696C93.8403 18.696 93.2432 18.9487 92.7838 19.4541C92.3245 19.9594 92.0949 20.6084 92.0949 21.4009C92.0949 22.1819 92.3245 22.8308 92.7838 23.3477C93.2432 23.853 93.8403 24.1057 94.5752 24.1057C95.3216 24.1057 95.9244 23.853 96.3837 23.3477C96.8431 22.8308 97.0727 22.1819 97.0727 21.4009Z" fill="white"/>
<path d="M102.29 29.6188L103.806 25.9664L100.206 17.0938H102.394L104.822 23.5716L107.286 17.0938H109.421L104.323 29.6188H102.29Z" fill="white"/>
<path d="M114.583 19.902C114.583 18.0299 115.152 16.5023 116.289 15.3193C117.437 14.1363 118.907 13.5448 120.698 13.5448C122.225 13.5448 123.523 13.9697 124.591 14.8197C125.659 15.6696 126.319 16.8182 126.572 18.2653H124.35C124.143 17.4154 123.712 16.7492 123.058 16.2669C122.415 15.7845 121.628 15.5433 120.698 15.5433C119.481 15.5433 118.522 15.9395 117.822 16.732C117.133 17.513 116.788 18.5697 116.788 19.902C116.788 21.2343 117.133 22.2968 117.822 23.0893C118.522 23.8818 119.481 24.278 120.698 24.278C121.628 24.278 122.415 24.0368 123.058 23.5544C123.712 23.072 124.143 22.4059 124.35 21.5559H126.572C126.319 23.0031 125.659 24.1517 124.591 25.0016C123.523 25.8515 122.225 26.2765 120.698 26.2765C118.907 26.2765 117.437 25.685 116.289 24.502C115.152 23.319 114.583 21.7856 114.583 19.902Z" fill="white"/>
<path d="M132.433 26.242C131.055 26.242 129.935 25.7883 129.074 24.881C128.224 23.9736 127.8 22.871 127.8 21.5732C127.8 20.2753 128.224 19.1727 129.074 18.2653C129.935 17.3465 131.055 16.8871 132.433 16.8871C133.822 16.8871 134.942 17.3465 135.792 18.2653C136.653 19.1727 137.084 20.2753 137.084 21.5732C137.084 22.871 136.653 23.9736 135.792 24.881C134.942 25.7883 133.822 26.242 132.433 26.242ZM129.849 21.5732C129.849 22.4231 130.09 23.1122 130.573 23.6406C131.066 24.1689 131.687 24.4331 132.433 24.4331C133.191 24.4331 133.811 24.1689 134.293 23.6406C134.787 23.1122 135.034 22.4231 135.034 21.5732C135.034 20.7117 134.787 20.0169 134.293 19.4885C133.811 18.9602 133.191 18.696 132.433 18.696C131.687 18.696 131.066 18.9602 130.573 19.4885C130.09 20.0169 129.849 20.7117 129.849 21.5732Z" fill="white"/>
<path d="M140.946 26.0353H138.896V13.1141H140.946V26.0353Z" fill="white"/>
<path d="M145.384 26.0353H143.335V13.1141H145.384V26.0353Z" fill="white"/>
<path d="M154.336 17.111H156.231V26.0353H154.336V24.7604C153.727 25.7482 152.723 26.242 151.322 26.242C150.047 26.242 149.037 25.7998 148.29 24.9154C147.555 24.0196 147.188 22.9055 147.188 21.5732C147.188 20.2408 147.555 19.1325 148.29 18.2481C149.037 17.3522 150.047 16.9043 151.322 16.9043C152.723 16.9043 153.727 17.3982 154.336 18.3859V17.111ZM149.926 19.5402C149.467 20.08 149.238 20.7577 149.238 21.5732C149.238 22.3886 149.467 23.072 149.926 23.6233C150.386 24.1631 150.994 24.4331 151.752 24.4331C152.522 24.4331 153.13 24.1631 153.578 23.6233C154.037 23.0835 154.267 22.4001 154.267 21.5732C154.267 20.7462 154.037 20.0628 153.578 19.523C153.13 18.9832 152.522 18.7133 151.752 18.7133C150.994 18.7133 150.386 18.9889 149.926 19.5402Z" fill="white"/>
<path d="M160.67 18.2653C161.279 17.3465 162.232 16.8871 163.53 16.8871C164.816 16.8871 165.826 17.335 166.561 18.2309C167.308 19.1267 167.681 20.2408 167.681 21.5732C167.681 22.9055 167.308 24.0196 166.561 24.9154C165.826 25.7998 164.816 26.242 163.53 26.242C162.14 26.242 161.136 25.7482 160.515 24.7604V26.0353H158.621V13.1141H160.67V18.2653ZM160.602 21.5732C160.602 22.4001 160.825 23.0835 161.273 23.6233C161.733 24.1631 162.347 24.4331 163.116 24.4331C163.874 24.4331 164.483 24.1631 164.942 23.6233C165.401 23.072 165.631 22.3886 165.631 21.5732C165.631 20.7347 165.401 20.0456 164.942 19.5058C164.483 18.966 163.874 18.696 163.116 18.696C162.347 18.696 161.733 18.966 161.273 19.5058C160.825 20.0456 160.602 20.7347 160.602 21.5732Z" fill="white"/>
<path d="M173.533 26.242C172.155 26.242 171.035 25.7883 170.174 24.881C169.324 23.9736 168.899 22.871 168.899 21.5732C168.899 20.2753 169.324 19.1727 170.174 18.2653C171.035 17.3465 172.155 16.8871 173.533 16.8871C174.922 16.8871 176.042 17.3465 176.891 18.2653C177.753 19.1727 178.183 20.2753 178.183 21.5732C178.183 22.871 177.753 23.9736 176.891 24.881C176.042 25.7883 174.922 26.242 173.533 26.242ZM170.949 21.5732C170.949 22.4231 171.19 23.1122 171.672 23.6406C172.166 24.1689 172.786 24.4331 173.533 24.4331C174.291 24.4331 174.911 24.1689 175.393 23.6406C175.887 23.1122 176.134 22.4231 176.134 21.5732C176.134 20.7117 175.887 20.0169 175.393 19.4885C174.911 18.9602 174.291 18.696 173.533 18.696C172.786 18.696 172.166 18.9602 171.672 19.4885C171.19 20.0169 170.949 20.7117 170.949 21.5732Z" fill="white"/>
<path d="M184.819 17.0249V18.9372C184.658 18.9143 184.503 18.9028 184.354 18.9028C182.815 18.9028 182.046 19.7297 182.046 21.3837V26.0353H179.996V17.0938H181.891V18.3342C182.396 17.4499 183.274 17.0077 184.526 17.0077L184.819 17.0249Z" fill="white"/>
<path d="M192.795 17.111H194.689V26.0353H192.795V24.7604C192.186 25.7482 191.181 26.242 189.78 26.242C188.506 26.242 187.495 25.7998 186.749 24.9154C186.014 24.0196 185.646 22.9055 185.646 21.5732C185.646 20.2408 186.014 19.1325 186.749 18.2481C187.495 17.3522 188.506 16.9043 189.78 16.9043C191.181 16.9043 192.186 17.3982 192.795 18.3859V17.111ZM188.385 19.5402C187.926 20.08 187.696 20.7577 187.696 21.5732C187.696 22.3886 187.926 23.072 188.385 23.6233C188.844 24.1631 189.453 24.4331 190.211 24.4331C190.98 24.4331 191.589 24.1631 192.037 23.6233C192.496 23.0835 192.726 22.4001 192.726 21.5732C192.726 20.7462 192.496 20.0628 192.037 19.523C191.589 18.9832 190.98 18.7133 190.211 18.7133C189.453 18.7133 188.844 18.9889 188.385 19.5402Z" fill="white"/>
<path d="M199.456 18.7305V26.0353H197.407V18.7305H196.046V17.0938H197.407V14.768H199.456V17.0938H200.955V18.7305H199.456Z" fill="white"/>
<path d="M203.292 15.595C202.913 15.595 202.603 15.4801 202.362 15.2504C202.12 15.0092 202 14.7048 202 14.3373C202 13.9583 202.12 13.6482 202.362 13.407C202.603 13.1658 202.913 13.0452 203.292 13.0452C203.659 13.0452 203.963 13.1658 204.205 13.407C204.446 13.6482 204.566 13.9583 204.566 14.3373C204.566 14.7048 204.446 15.0092 204.205 15.2504C203.963 15.4801 203.659 15.595 203.292 15.595ZM202.258 26.0353V17.0938H204.308V26.0353H202.258Z" fill="white"/>
<path d="M210.745 26.242C209.367 26.242 208.247 25.7883 207.386 24.881C206.536 23.9736 206.111 22.871 206.111 21.5732C206.111 20.2753 206.536 19.1727 207.386 18.2653C208.247 17.3465 209.367 16.8871 210.745 16.8871C212.134 16.8871 213.254 17.3465 214.103 18.2653C214.965 19.1727 215.395 20.2753 215.395 21.5732C215.395 22.871 214.965 23.9736 214.103 24.881C213.254 25.7883 212.134 26.242 210.745 26.242ZM208.161 21.5732C208.161 22.4231 208.402 23.1122 208.884 23.6406C209.378 24.1689 209.998 24.4331 210.745 24.4331C211.502 24.4331 212.123 24.1689 212.605 23.6406C213.099 23.1122 213.345 22.4231 213.345 21.5732C213.345 20.7117 213.099 20.0169 212.605 19.4885C212.123 18.9602 211.502 18.696 210.745 18.696C209.998 18.696 209.378 18.9602 208.884 19.4885C208.402 20.0169 208.161 20.7117 208.161 21.5732Z" fill="white"/>
<path d="M219.102 17.0938V18.2826C219.309 17.8921 219.648 17.5647 220.119 17.3006C220.601 17.0249 221.181 16.8871 221.858 16.8871C222.915 16.8871 223.73 17.2087 224.304 17.8519C224.89 18.495 225.183 19.3507 225.183 20.4189V26.0353H223.133V20.6773C223.133 20.0456 222.984 19.5517 222.685 19.1957C222.398 18.8281 221.956 18.6444 221.359 18.6444C220.704 18.6444 220.188 18.8396 219.809 19.2301C219.441 19.6206 219.257 20.1604 219.257 20.8496V26.0353H217.208V17.0938H219.102Z" fill="white"/>
<path d="M234.179 19.2818H237.176C237.842 19.2818 238.336 19.1267 238.657 18.8166C238.99 18.5065 239.157 18.0758 239.157 17.5245C239.157 16.9732 238.99 16.5368 238.657 16.2152C238.324 15.8936 237.831 15.7328 237.176 15.7328H234.179V19.2818ZM234.179 21.2114V26.0353H232.095V13.8032H237.159C238.548 13.8032 239.576 14.1478 240.242 14.8369C240.92 15.5146 241.258 16.4104 241.258 17.5245C241.258 18.6271 240.914 19.5173 240.225 20.1949C239.536 20.8725 238.514 21.2114 237.159 21.2114H234.179Z" fill="white"/>
<path d="M247.508 17.0249V18.9372C247.347 18.9143 247.192 18.9028 247.043 18.9028C245.504 18.9028 244.735 19.7297 244.735 21.3837V26.0353H242.685V17.0938H244.58V18.3342C245.085 17.4499 245.963 17.0077 247.215 17.0077L247.508 17.0249Z" fill="white"/>
<path d="M252.568 26.242C251.19 26.242 250.07 25.7883 249.209 24.881C248.359 23.9736 247.934 22.871 247.934 21.5732C247.934 20.2753 248.359 19.1727 249.209 18.2653C250.07 17.3465 251.19 16.8871 252.568 16.8871C253.957 16.8871 255.077 17.3465 255.926 18.2653C256.788 19.1727 257.218 20.2753 257.218 21.5732C257.218 22.871 256.788 23.9736 255.926 24.881C255.077 25.7883 253.957 26.242 252.568 26.242ZM249.984 21.5732C249.984 22.4231 250.225 23.1122 250.707 23.6406C251.201 24.1689 251.821 24.4331 252.568 24.4331C253.325 24.4331 253.946 24.1689 254.428 23.6406C254.922 23.1122 255.168 22.4231 255.168 21.5732C255.168 20.7117 254.922 20.0169 254.428 19.4885C253.946 18.9602 253.325 18.696 252.568 18.696C251.821 18.696 251.201 18.9602 250.707 19.4885C250.225 20.0169 249.984 20.7117 249.984 21.5732Z" fill="white"/>
<path d="M265.542 18.3687V17.0938H267.436V25.6563C267.436 26.8737 267.057 27.8672 266.299 28.6368C265.553 29.4178 264.508 29.8083 263.165 29.8083C261.936 29.8083 260.971 29.4924 260.271 28.8607C259.582 28.229 259.18 27.5054 259.065 26.69H261.115C261.368 27.5973 262.062 28.051 263.199 28.051C263.888 28.051 264.422 27.8557 264.801 27.4652C265.191 27.0862 265.387 26.5751 265.387 25.9319V24.5364C264.789 25.4553 263.848 25.9147 262.562 25.9147C261.322 25.9147 260.323 25.484 259.565 24.6226C258.818 23.7497 258.445 22.6758 258.445 21.4009C258.445 20.126 258.818 19.0578 259.565 18.1964C260.323 17.3235 261.322 16.8871 262.562 16.8871C263.928 16.8871 264.922 17.3809 265.542 18.3687ZM265.473 21.4009C265.473 20.6084 265.243 19.9594 264.784 19.4541C264.324 18.9487 263.722 18.696 262.975 18.696C262.24 18.696 261.643 18.9487 261.184 19.4541C260.724 19.9594 260.495 20.6084 260.495 21.4009C260.495 22.1819 260.724 22.8308 261.184 23.3477C261.643 23.853 262.24 24.1057 262.975 24.1057C263.722 24.1057 264.324 23.853 264.784 23.3477C265.243 22.8308 265.473 22.1819 265.473 21.4009Z" fill="white"/>
<path d="M274.172 17.0249V18.9372C274.012 18.9143 273.857 18.9028 273.707 18.9028C272.169 18.9028 271.399 19.7297 271.399 21.3837V26.0353H269.35V17.0938H271.244V18.3342C271.749 17.4499 272.628 17.0077 273.88 17.0077L274.172 17.0249Z" fill="white"/>
<path d="M281.747 17.111H283.641V26.0353H281.747V24.7604C281.138 25.7482 280.133 26.242 278.733 26.242C277.458 26.242 276.447 25.7998 275.701 24.9154C274.966 24.0196 274.599 22.9055 274.599 21.5732C274.599 20.2408 274.966 19.1325 275.701 18.2481C276.447 17.3522 277.458 16.9043 278.733 16.9043C280.133 16.9043 281.138 17.3982 281.747 18.3859V17.111ZM277.337 19.5402C276.878 20.08 276.648 20.7577 276.648 21.5732C276.648 22.3886 276.878 23.072 277.337 23.6233C277.797 24.1631 278.405 24.4331 279.163 24.4331C279.933 24.4331 280.541 24.1631 280.989 23.6233C281.448 23.0835 281.678 22.4001 281.678 21.5732C281.678 20.7462 281.448 20.0628 280.989 19.523C280.541 18.9832 279.933 18.7133 279.163 18.7133C278.405 18.7133 277.797 18.9889 277.337 19.5402Z" fill="white"/>
<path d="M293.817 20.9013V26.0353H291.767V20.6773C291.767 19.322 291.205 18.6444 290.079 18.6444C289.471 18.6444 288.983 18.8396 288.615 19.2301C288.259 19.6206 288.081 20.1547 288.081 20.8323V26.0353H286.032V17.0938H287.926V18.2826C288.145 17.8806 288.478 17.5475 288.925 17.2833C289.373 17.0192 289.93 16.8871 290.596 16.8871C291.836 16.8871 292.732 17.358 293.283 18.2998C294.041 17.358 295.051 16.8871 296.315 16.8871C297.36 16.8871 298.163 17.2144 298.726 17.8691C299.289 18.5123 299.57 19.3622 299.57 20.4189V26.0353H297.52V20.6773C297.52 19.322 296.958 18.6444 295.832 18.6444C295.212 18.6444 294.718 18.8454 294.351 19.2473C293.995 19.6379 293.817 20.1892 293.817 20.9013Z" fill="white"/>
<path d="M309.66 20.9013V26.0353H307.61V20.6773C307.61 19.322 307.048 18.6444 305.922 18.6444C305.314 18.6444 304.826 18.8396 304.458 19.2301C304.102 19.6206 303.924 20.1547 303.924 20.8323V26.0353H301.875V17.0938H303.769V18.2826C303.988 17.8806 304.321 17.5475 304.768 17.2833C305.216 17.0192 305.773 16.8871 306.439 16.8871C307.679 16.8871 308.575 17.358 309.126 18.2998C309.884 17.358 310.895 16.8871 312.158 16.8871C313.203 16.8871 314.006 17.2144 314.569 17.8691C315.132 18.5123 315.413 19.3622 315.413 20.4189V26.0353H313.363V20.6773C313.363 19.322 312.801 18.6444 311.675 18.6444C311.055 18.6444 310.562 18.8454 310.194 19.2473C309.838 19.6379 309.66 20.1892 309.66 20.9013Z" fill="white"/>
<path d="M30.986 23.3185C30.5875 23.7811 30.3029 24.0172 30.0372 24.1399C29.6387 24.3382 29.1928 24.4798 28.7184 24.4798C27.9973 24.4798 27.4185 24.2721 26.9821 23.8472C26.5457 23.4224 26.28 22.8559 26.2041 22.1477H32.9121L32.931 21.5057C32.931 20.1744 32.6748 19.0603 31.8589 18.1822C31.0429 17.3042 29.9708 16.8604 28.652 16.8604C27.3332 16.8604 26.2515 17.3136 25.4261 18.2106C24.5911 19.1075 24.1737 20.2217 24.1737 21.5435C24.1737 22.9031 24.5911 24.0266 25.4166 24.9141C26.242 25.8016 27.3332 26.2454 28.671 26.2454C29.7051 26.2454 30.597 25.9622 31.356 25.4051C31.7735 25.103 32.1151 24.7442 32.3807 24.3288L30.986 23.3185ZM27.039 19.117C27.466 18.7393 28.0068 18.5505 28.652 18.5505C29.3161 18.5505 29.8474 18.7393 30.2649 19.117C30.6824 19.4947 30.9386 20.0045 31.0334 20.6371H26.242C26.3369 19.995 26.6121 19.4947 27.039 19.117Z" fill="white"/>
<path d="M323.928 23.3185C323.529 23.7811 323.245 24.0172 322.979 24.1399C322.58 24.3382 322.134 24.4798 321.66 24.4798C320.939 24.4798 320.36 24.2721 319.924 23.8472C319.487 23.4224 319.222 22.8559 319.146 22.1477H325.854L325.873 21.5057C325.873 20.1744 325.617 19.0603 324.801 18.1822C323.985 17.3042 322.913 16.8604 321.594 16.8604C320.275 16.8604 319.193 17.3136 318.368 18.2106C317.533 19.1075 317.115 20.2217 317.115 21.5435C317.115 22.9031 317.533 24.0266 318.358 24.9141C319.184 25.8016 320.275 26.2454 321.613 26.2454C322.647 26.2454 323.539 25.9622 324.298 25.4051C324.715 25.103 325.057 24.7442 325.322 24.3288L323.928 23.3185ZM319.981 19.117C320.408 18.7393 320.949 18.5505 321.594 18.5505C322.258 18.5505 322.789 18.7393 323.207 19.117C323.624 19.4947 323.88 20.0045 323.975 20.6371H319.184C319.279 19.995 319.554 19.4947 319.981 19.117Z" fill="white"/>
<path fill-rule="evenodd" clip-rule="evenodd" d="M21.4879 43.506L21.4884 43.5053C21.9412 42.9533 22.1657 42.2855 22.1657 41.5093C22.1657 40.7268 21.9415 40.0586 21.4881 39.5129C21.0286 38.953 20.3928 38.6763 19.5968 38.6763C18.8246 38.6763 18.2201 38.9313 17.7984 39.4445V36.3553H16.8252V44.2105H17.768V43.5454C18.1964 44.0708 18.8109 44.3322 19.5968 44.3322C20.3924 44.3322 21.0281 44.0592 21.4879 43.506ZM21.1823 41.5093C21.1823 42.0639 21.0219 42.5199 20.7065 42.8859L20.7056 42.8868C20.4012 43.2473 19.9923 43.4297 19.465 43.4297C18.9378 43.4297 18.5329 43.2474 18.2354 42.8878C17.9326 42.5219 17.7781 42.0653 17.7781 41.5093C17.7781 40.9389 17.9331 40.4797 18.2347 40.1215L18.2354 40.1206C18.5329 39.7611 18.9378 39.5788 19.465 39.5788C19.9923 39.5788 20.4012 39.7611 20.7056 40.1216L20.7065 40.1226C21.0217 40.4883 21.1823 40.9475 21.1823 41.5093Z" fill="white"/>
<path d="M24.4863 44.0836L23.5517 46.3186H24.5561L27.7231 38.7979H26.6869L24.9994 42.9162L23.3313 38.7979H22.2749L24.4863 44.0836Z" fill="white"/>
</svg>
